<?xml version="1.0" encoding="UTF-8"?>
<svg id="Capa_1" data-name="Capa 1" xmlns="http://www.w3.org/2000/svg" viewBox="0 0 328.71 273.03">
  <defs>
    <style>
      .cls-1 {
        fill: #0f1f18;
      }

      .cls-2 {
        fill: #90c36b;
      }
    </style>
  </defs>
  <path class="cls-1" d="M252.86,119.36h-21.56c0-4.71-1.9-8.5-5.69-11.37-3.79-2.87-8.82-4.32-15.09-4.32-5.1,0-9.31,1.08-12.65,3.24-3.33,2.16-5,4.87-5,8.14s1.63,6.11,4.9,8.53c3.27,2.42,7.35,4.8,12.25,7.15,4.9,2.35,10.19,4.84,15.88,7.45,5.69,2.62,10.98,5.75,15.88,9.41,4.9,3.66,8.98,8.04,12.25,13.14,3.27,5.1,4.9,11.24,4.9,18.43h-21.56c0-4.83-1.64-8.85-4.9-12.06-3.27-3.2-7.35-6.11-12.25-8.73-4.9-2.61-10.19-5.13-15.88-7.55-5.69-2.42-10.98-5.2-15.88-8.33-4.9-3.14-8.99-6.89-12.25-11.27-3.27-4.38-4.9-9.77-4.9-16.17,0-4.57,1.01-8.82,3.04-12.74,2.03-3.92,4.83-7.32,8.43-10.19,3.59-2.87,7.84-5.1,12.74-6.67,4.9-1.57,10.29-2.35,16.17-2.35s11.73.88,16.76,2.65c5.03,1.77,9.34,4.25,12.94,7.45,3.59,3.2,6.4,7.03,8.43,11.47,2.02,4.45,3.04,9.35,3.04,14.7ZM185.03,153.67c3.92,0,7.19,1.31,9.8,3.92,2.61,2.62,3.92,5.88,3.92,9.8s-1.31,7.19-3.92,9.8c-2.62,2.61-5.88,3.92-9.8,3.92s-7.19-1.31-9.8-3.92c-2.62-2.61-3.92-5.88-3.92-9.8s1.31-7.19,3.92-9.8c2.61-2.61,5.88-3.92,9.8-3.92Z"/>
  <circle class="cls-2" cx="185.03" cy="167.39" r="14.33"/>
  <path class="cls-2" d="M143.88,117.55c3.75,4.25,13.26,5.32,20.39,11.28,6.58,5.5,7.99,14.77,3.23,21.91-2.88,4.32-7.47,6.92-12.28,7.4-5.39.53-10.48-1.28-14.14-5.21-2.43-2.61-3.79-5.54-5.17-8.78l-3.38-7.9c-1.93-4.5-6.27-7.2-10.93-7.5-4.56-.29-9.55,1.54-12.05,5.61l-4.07,8.59c-1.95,4.1-3.92,8.09-7.36,11.15-4.06,3.6-9.38,4.89-14.91,3.69-4.62-1.01-9.17-4.29-11.45-9.13-3.62-7.68-.89-16.48,6.12-21.14,2.14-1.42,4.4-2.32,6.8-3.3l7.46-3.06c5.81-2.38,8.64-9.4,10.75-15.31,1.58-4.41,4.23-8.47,8.27-10.99,8.11-5.06,18.49-2.52,23.7,5.38l3.97,7.82c1.58,3.1,2.57,6.66,5.05,9.47Z"/>
</svg>